<?xml version="1.0" encoding="UTF-8"?> <svg class="arrow-back" xmlns="http://www.w3.org/2000/svg"
    xmlns:xlink="http://www.w3.org/1999/xlink" width="100px" height="100px" viewBox="0 0 100 100"
    version="1.1">
<g id="surface61047">
<path
    style=" stroke:none;fill-rule:nonzero;fill:rgb(47.058824%,63.529412%,82.352941%);fill-opacity:1;"
    d="M 62 43 L 49 30 L 58 21 L 87 50 L 58 79 L 49 70 L 62 57 L 13 57 L 13 43 Z M 62 43 " />
<path
    style=" stroke:none;fill-rule:nonzero;fill:rgb(12.156863%,12.941176%,16.862745%);fill-opacity:1;"
    d="M 58 80 C 57.742188 80 57.488281 79.902344 57.292969 79.707031 L 48.292969 70.707031 C 47.902344 70.316406 47.902344 69.683594 48.292969 69.292969 L 59.585938 58 L 13 58 C 12.449219 58 12 57.550781 12 57 L 12 43 C 12 42.449219 12.449219 42 13 42 L 59.585938 42 L 48.292969 30.707031 C 47.902344 30.316406 47.902344 29.683594 48.292969 29.292969 L 57.292969 20.292969 C 57.683594 19.902344 58.316406 19.902344 58.707031 20.292969 L 87.707031 49.292969 C 88.097656 49.683594 88.097656 50.316406 87.707031 50.707031 L 58.707031 79.707031 C 58.511719 79.902344 58.257812 80 58 80 Z M 50.414062 70 L 58 77.585938 L 85.585938 50 L 58 22.414062 L 50.414062 30 L 62.707031 42.292969 C 62.992188 42.578125 63.078125 43.007812 62.925781 43.382812 C 62.769531 43.757812 62.402344 44 62 44 L 14 44 L 14 56 L 62 56 C 62.402344 56 62.769531 56.242188 62.925781 56.617188 C 63.078125 56.992188 62.992188 57.421875 62.707031 57.707031 Z M 50.414062 70 " />
<path
    style=" stroke:none;fill-rule:nonzero;fill:rgb(12.156863%,12.941176%,16.862745%);fill-opacity:1;"
    d="M 69 39 C 68.871094 39 68.742188 38.949219 68.644531 38.855469 L 58.144531 28.355469 C 57.949219 28.160156 57.949219 27.84375 58.144531 27.648438 C 58.339844 27.453125 58.65625 27.453125 58.851562 27.648438 L 69.351562 38.148438 C 69.546875 38.34375 69.546875 38.660156 69.351562 38.855469 C 69.257812 38.949219 69.128906 39 69 39 Z M 76.5 46.5 C 76.371094 46.5 76.242188 46.449219 76.144531 46.355469 L 73.644531 43.855469 C 73.449219 43.660156 73.449219 43.34375 73.644531 43.148438 C 73.839844 42.953125 74.15625 42.953125 74.351562 43.148438 L 76.851562 45.648438 C 77.046875 45.84375 77.046875 46.160156 76.851562 46.355469 C 76.757812 46.449219 76.628906 46.5 76.5 46.5 Z M 58.5 72.5 C 58.371094 72.5 58.242188 72.449219 58.144531 72.355469 C 57.949219 72.160156 57.949219 71.84375 58.144531 71.648438 L 75.644531 54.148438 C 75.839844 53.953125 76.15625 53.953125 76.351562 54.148438 C 76.546875 54.34375 76.546875 54.660156 76.351562 54.855469 L 58.851562 72.355469 C 58.757812 72.449219 58.628906 72.5 58.5 72.5 Z M 80.5 50.5 C 80.371094 50.5 80.242188 50.449219 80.144531 50.355469 L 78.644531 48.855469 C 78.449219 48.660156 78.449219 48.34375 78.644531 48.148438 C 78.839844 47.953125 79.15625 47.953125 79.351562 48.148438 L 80.851562 49.648438 C 81.046875 49.84375 81.046875 50.160156 80.851562 50.355469 C 80.757812 50.449219 80.628906 50.5 80.5 50.5 Z M 80.5 50.5 " />
    </g>
</svg>